<?xml version="1.0" encoding="utf-8"?>
<!-- Generator: Adobe Illustrator 19.0.0, SVG Export Plug-In . SVG Version: 6.00 Build 0)  -->
<svg version="1.1" id="Layer_1" xmlns="http://www.w3.org/2000/svg" xmlns:xlink="http://www.w3.org/1999/xlink" x="0px" y="0px"
	 viewBox="0 0 612 792" style="enable-background:new 0 0 612 792;" fill="white" xml:space="preserve">
<style type="text/css">
	.st0{fill:none;stroke:#000000;stroke-width:0;stroke-linecap:round;stroke-linejoin:round;stroke-miterlimit:10;}
</style>
<g id="SPLINE">
	<path class="st0" d="M78.5,295.7c-39.8,46.8-78,104.7-78.4,148.1C0,460,5.2,474.3,17.7,485.1c18,15.5,37.8,21,57.5,21
		c28.8,0,57.4-11.6,79.8-20.5c37.7-15.1,454.4-196,454.4-196c4-2,3.3-4.5-1.8-3.3c-2,0.5-453.7,122.9-453.7,122.9
		c-8.6,2.4-17.4,3.7-26.3,3.8c-34.7,0.2-65.6-19.1-65.3-59.7C62.4,337.4,67.2,318.2,78.5,295.7z"/>
</g>
<g id="HATCH">
	<path d="M78.5,295.7c-39.8,46.8-78,104.7-78.4,148.1C0,460,5.2,474.3,17.7,485.1c18,15.5,37.8,21,57.5,21
		c28.8,0,57.4-11.6,79.8-20.5c37.7-15.1,454.4-196,454.4-196c4-2,3.3-4.5-1.8-3.3c-2,0.5-453.7,122.9-453.7,122.9
		c-8.6,2.4-17.4,3.7-26.3,3.8c-34.7,0.2-65.6-19.1-65.3-59.7C62.4,337.4,67.2,318.2,78.5,295.7z"/>
</g>
</svg>

